<svg width="142" height="142" viewBox="0 0 142 142" fill="none" xmlns="http://www.w3.org/2000/svg">
<g id="cookies-svgrepo-com 1" clip-path="url(#clip0_1_3)">
<g id="cookie">
<path id="Vector" d="M133.023 68.8811L126.272 70.2312C124.026 70.6805 121.768 69.5121 120.837 67.4184L113.606 51.1477C112.994 49.7702 111.781 48.7518 110.319 48.3859L106.552 47.4444C104.372 46.8994 102.843 44.9411 102.843 42.694V16.586C102.843 15.366 102.388 14.1897 101.566 13.2878L92.4706 3.30733C84.2703 0.710556 75.4308 -0.447909 66.2408 0.157255C30.9197 2.48417 2.30638 31.217 0.15114 66.5486C-2.36354 107.778 30.3292 142 71.0152 142C109.822 142 141.337 110.861 141.985 72.2089L136.173 69.3032C135.199 68.8159 134.091 68.6675 133.023 68.8811Z" fill="#FFE6A1"/>
<g id="Group">
<path id="Vector_2" d="M93.0496 119.965C92.6186 119.965 92.194 119.941 91.765 119.933C89.0747 122.951 85.1692 124.862 80.8082 124.862C74.3849 124.862 68.939 120.732 66.943 114.989C58.157 111.512 50.2322 106.339 43.5721 99.8634C42.5645 100.167 41.5181 100.379 40.4115 100.379C34.3268 100.379 29.3942 95.4465 29.3942 89.3618C29.3942 87.2368 30.0244 85.2702 31.0666 83.5872C30.992 83.4538 30.9124 83.3243 30.8384 83.1904C23.1962 82.6723 17.1531 76.3253 17.1531 68.5516C17.1531 63.9702 19.2515 59.8807 22.5383 57.1866C22.2269 54.4878 22.0496 51.7482 22.0496 48.9653C22.0496 35.0013 26.0972 21.9903 33.0593 11.0097C13.2054 23.5978 0.0152283 45.7517 0.0152283 71C0.0152283 110.212 31.803 142 71.0152 142C96.2635 142 118.417 128.81 131.006 108.956C120.025 115.918 107.014 119.965 93.0496 119.965Z" fill="#FFD796"/>
<path id="Vector_3" d="M55.1015 58.7586C58.4819 58.7586 61.2222 56.0183 61.2222 52.6379C61.2222 49.2575 58.4819 46.5172 55.1015 46.5172C51.7212 46.5172 48.9808 49.2575 48.9808 52.6379C48.9808 56.0183 51.7212 58.7586 55.1015 58.7586Z" fill="#FFD796"/>
<path id="Vector_4" d="M119.981 99.1551C123.361 99.1551 126.102 96.4148 126.102 93.0344C126.102 89.6541 123.361 86.9137 119.981 86.9137C116.6 86.9137 113.86 89.6541 113.86 93.0344C113.86 96.4148 116.6 99.1551 119.981 99.1551Z" fill="#FFD796"/>
<path id="Vector_5" d="M64.2825 99.1551C66.6487 99.1551 68.5669 97.2369 68.5669 94.8707C68.5669 92.5045 66.6487 90.5863 64.2825 90.5863C61.9162 90.5863 59.998 92.5045 59.998 94.8707C59.998 97.2369 61.9162 99.1551 64.2825 99.1551Z" fill="#FFD796"/>
<path id="Vector_6" d="M97.3343 59.9825C99.7005 59.9825 101.619 58.0643 101.619 55.6981C101.619 53.3319 99.7005 51.4137 97.3343 51.4137C94.9681 51.4137 93.0499 53.3319 93.0499 55.6981C93.0499 58.0643 94.9681 59.9825 97.3343 59.9825Z" fill="#FFD796"/>
<path id="Vector_7" d="M80.1964 22.0344C82.5626 22.0344 84.4808 20.1162 84.4808 17.75C84.4808 15.3838 82.5626 13.4656 80.1964 13.4656C77.8302 13.4656 75.912 15.3838 75.912 17.75C75.912 20.1162 77.8302 22.0344 80.1964 22.0344Z" fill="#FFD796"/>
</g>
<g id="Group_2">
<path id="Vector_8" d="M67.4525 63.0641L64.6222 67.7814C62.9304 70.6009 64.4436 74.2535 67.6333 75.0509L76.0579 77.157C78.6816 77.8129 81.3402 76.2179 81.9958 73.5943L82.9596 69.7392C83.1546 68.9593 83.1546 68.1439 82.9596 67.364L81.9406 63.2879C81.3069 60.7522 78.7931 59.1613 76.2301 59.6738L70.691 60.7816C69.3381 61.0525 68.1625 61.8812 67.4525 63.0641Z" fill="#B97850"/>
<path id="Vector_9" d="M81.584 93.3742L78.6322 98.2937C77.1648 100.74 78.09 103.917 80.641 105.193L90.038 109.891C92.8397 111.292 96.2183 109.738 96.9782 106.699L97.9461 102.827L99.0774 98.3015C99.7816 95.4848 97.894 92.6772 95.0193 92.2665L86.4746 91.0456C84.5249 90.7671 82.5974 91.6849 81.584 93.3742Z" fill="#B97850"/>
<path id="Vector_10" d="M30.0677 64.1657L26.4652 70.1699C25.3093 72.0966 25.613 74.5628 27.2016 76.1517L32.8711 81.8214C34.9348 83.8851 38.3339 83.6968 40.1572 81.4178L45.0176 75.3421C45.9722 74.149 46.315 72.5784 45.9442 71.0957L44.8357 66.6615C44.3767 64.8255 42.9012 63.4188 41.0458 63.0474L35.2265 61.8837C33.1975 61.4777 31.1324 62.3912 30.0677 64.1657Z" fill="#B97850"/>
<path id="Vector_11" d="M50.0026 24.4115L47.2247 29.0415C45.6131 31.7276 46.9033 35.2155 49.875 36.2061L55.9031 38.2155C57.6625 38.8018 59.6023 38.3439 60.9138 37.0326L64.1585 33.788C65.3746 32.5718 65.8636 30.8065 65.4465 29.138L64.5978 25.7436C64.0528 23.5634 62.0942 22.0341 59.8472 22.0341H54.201C52.4815 22.0344 50.8876 22.9369 50.0026 24.4115Z" fill="#B97850"/>
<path id="Vector_12" d="M109.139 62.2554L106.305 65.0895C104.393 67.0015 104.393 70.102 106.305 72.0142L107.692 73.4012C109.182 74.8917 111.459 75.2611 113.344 74.3184L121.364 70.3086C123.417 69.2821 124.482 66.968 123.925 64.7415L123.562 63.2885C122.928 60.7527 120.414 59.1619 117.851 59.6744L111.642 60.9163C110.693 61.1055 109.823 61.5717 109.139 62.2554Z" fill="#B97850"/>
<path id="Vector_13" d="M90.9324 27.3062L87.6806 31.6422C86.4861 33.2347 86.3749 35.3924 87.3991 37.0994L90.408 42.1141C91.8463 44.5115 94.9966 45.2198 97.3227 43.6692L103.433 39.5958C105.772 38.0366 106.32 34.8324 104.634 32.5837L101.312 28.1551C100.715 27.3583 99.8884 26.7626 98.9435 26.4478L96.3981 25.5991C94.3984 24.9321 92.1968 25.6199 90.9324 27.3062Z" fill="#B97850"/>
<path id="Vector_14" d="M49.0313 104.665L45.8341 108.662C43.7815 111.228 44.7885 115.047 47.8393 116.267L52.134 117.985C53.3016 118.452 54.6037 118.452 55.7711 117.985L60.5908 116.057C63.4785 114.902 64.5717 111.382 62.8467 108.794L62.0188 107.553C61.5459 106.844 60.8967 106.271 60.1345 105.889L55.0453 103.345C52.9793 102.312 50.4735 102.863 49.0313 104.665Z" fill="#B97850"/>
</g>
<g id="Group_3">
<path id="Vector_15" d="M38.9468 81.2398L33.2774 75.5704C31.6887 73.9817 31.3848 71.5153 32.541 69.5889L36.1434 63.5847C36.4507 63.0727 36.8568 62.657 37.3058 62.2997L35.2268 61.8843C33.1978 61.4785 31.1324 62.3921 30.0677 64.1663L26.4652 70.1705C25.3093 72.0972 25.613 74.5633 27.2016 76.1522L32.8711 81.8217C34.7839 83.7345 37.8286 83.6885 39.7173 81.8602C39.4466 81.6808 39.1859 81.4792 38.9468 81.2398Z" fill="#A5694B"/>
<path id="Vector_16" d="M60.807 36.4724L54.779 34.4633C51.8075 33.4726 50.5168 29.9847 52.1287 27.2987L54.9066 22.6687C55.0477 22.433 55.2344 22.2391 55.4094 22.0344H54.2007C52.4809 22.0344 50.887 22.9369 50.002 24.4118L47.2241 29.0415C45.6122 31.7276 46.9024 35.2154 49.8744 36.2061L55.9025 38.2155C57.662 38.8018 59.6017 38.3439 60.9133 37.0326L61.3695 36.5764C61.182 36.5375 60.9918 36.5339 60.807 36.4724Z" fill="#A5694B"/>
<path id="Vector_17" d="M80.7037 75.7492L72.2791 73.6431C69.0891 72.8454 67.5759 69.1931 69.268 66.3736L72.0983 61.6563C72.4352 61.0947 72.8829 60.6207 73.399 60.2404L70.691 60.7821C69.3384 61.0525 68.1622 61.8815 67.4525 63.0646L64.6222 67.782C62.9304 70.6015 64.4436 74.2541 67.6333 75.0514L76.0579 77.1576C77.8326 77.6013 79.6076 76.9989 80.7833 75.7611C80.7567 75.7545 80.7303 75.7559 80.7037 75.7492Z" fill="#A5694B"/>
<path id="Vector_18" d="M94.9816 41.6906L91.9727 36.6759C90.9485 34.9689 91.0597 32.8117 92.2542 31.2187L95.5061 26.8829C95.8622 26.4078 96.3043 26.0357 96.7835 25.727L96.3977 25.5986C94.3981 24.9321 92.1965 25.6199 90.9319 27.3059L87.6803 31.6416C86.4858 33.2344 86.3745 35.3918 87.3988 37.0989L90.4077 42.1135C91.8413 44.5029 94.9744 45.2115 97.298 43.6814C96.367 43.2939 95.5427 42.6255 94.9816 41.6906Z" fill="#A5694B"/>
<path id="Vector_19" d="M111.622 73.0751C109.709 71.1628 109.709 68.0627 111.622 66.1504L114.456 63.3162C115.139 62.6328 116.01 62.1666 116.958 61.9772L122.185 60.9319C121.066 59.8691 119.47 59.3502 117.851 59.6741L111.641 60.9161C110.693 61.1058 109.823 61.5717 109.139 62.2551L106.305 65.0893C104.393 67.0015 104.393 70.1017 106.305 72.014L107.692 73.401C109.09 74.7991 111.17 75.1654 112.98 74.4335L111.622 73.0751Z" fill="#A5694B"/>
<path id="Vector_20" d="M86.7068 104.782C84.1558 103.506 83.2303 100.329 84.698 97.8829L87.6498 92.9637C88.037 92.3189 88.5842 91.8299 89.1877 91.4336L86.4752 91.0461C84.525 90.7674 82.5977 91.6849 81.5843 93.3742L78.6325 98.2937C77.1651 100.74 78.0903 103.917 80.6413 105.193L90.0383 109.891C91.9112 110.828 94.0248 110.423 95.4584 109.158L86.7068 104.782Z" fill="#A5694B"/>
<path id="Vector_21" d="M57.0305 117.167L52.7358 115.449C49.6853 114.229 48.6783 110.409 50.7306 107.843L53.9278 103.847C54.1309 103.593 54.3588 103.371 54.5996 103.168C52.6288 102.414 50.3723 102.989 49.0313 104.665L45.8341 108.662C43.7815 111.228 44.7885 115.047 47.8393 116.267L52.134 117.985C53.3016 118.452 54.6037 118.452 55.7711 117.985L57.4842 117.3C57.3325 117.256 57.178 117.226 57.0305 117.167Z" fill="#A5694B"/>
</g>
<path id="Vector_22" d="M19.5985 100.377C19.2315 100.377 18.8571 100.293 18.506 100.119C17.2962 99.5137 16.8059 98.0435 17.4111 96.8337L19.8595 91.9372C20.4646 90.7275 21.9312 90.2421 23.1443 90.8423C24.3541 91.4474 24.8444 92.9174 24.2393 94.1271L21.7909 99.0236C21.3618 99.8817 20.4976 100.377 19.5985 100.377Z" fill="#C98850"/>
<path id="Vector_23" d="M63.6703 132.207H61.222C59.8699 132.207 58.7736 131.112 58.7736 129.758C58.7736 128.405 59.8699 127.31 61.222 127.31H63.6703C65.0224 127.31 66.1187 128.405 66.1187 129.758C66.1187 131.112 65.0224 132.207 63.6703 132.207Z" fill="#925F4A"/>
<path id="Vector_24" d="M53.8748 85.6895C53.5079 85.6895 53.1335 85.606 52.7824 85.4313C51.5726 84.8261 51.0823 83.3559 51.6874 82.1464L54.1358 77.2499C54.7396 76.0427 56.2065 75.5548 57.4207 76.155C58.6305 76.7601 59.1208 78.2301 58.5156 79.4398L56.0672 84.3363C55.6382 85.1947 54.7737 85.6895 53.8748 85.6895Z" fill="#C98850"/>
<g id="Group_4">
<path id="Vector_25" d="M39.1853 46.5172C38.8184 46.5172 38.444 46.4337 38.0929 46.259L33.1964 43.8106C31.9866 43.2054 31.4963 41.7355 32.1014 40.5257C32.7052 39.3185 34.1732 38.8281 35.3863 39.4308L40.2828 41.8789C41.4926 42.4841 41.9829 43.954 41.3777 45.1638C40.9487 46.0221 40.0842 46.5172 39.1853 46.5172Z" fill="#925F4A"/>
<path id="Vector_26" d="M68.5671 12.2411H63.6706C62.3186 12.2411 61.2222 11.1462 61.2222 9.79274C61.2222 8.4393 62.3186 7.34435 63.6706 7.34435H68.5671C69.9192 7.34435 71.0155 8.4393 71.0155 9.79274C71.0155 11.1462 69.9192 12.2411 68.5671 12.2411Z" fill="#925F4A"/>
</g>
<path id="Vector_27" d="M78.3627 48.9653C77.4635 48.9653 76.5993 48.4705 76.1702 47.6122L73.7219 42.7156C73.1167 41.5059 73.607 40.0354 74.8168 39.4308C76.0291 38.8281 77.4982 39.3185 78.1017 40.5257L80.5501 45.4222C81.1552 46.632 80.6649 48.1025 79.4551 48.7071C79.1034 48.8818 78.7296 48.9653 78.3627 48.9653Z" fill="#C98850"/>
<g id="Group_5">
<path id="Vector_28" d="M11.1731 60.9538C10.8439 60.7915 10.5452 60.5511 10.3069 60.2391C9.48876 59.1619 9.69927 57.6262 10.7767 56.8083L15.1371 53.4979C16.2135 52.6795 17.7481 52.8919 18.5679 53.9678C19.3861 55.045 19.1755 56.5806 18.0981 57.3985L13.7379 60.7086C12.9733 61.2888 11.9793 61.3509 11.1731 60.9538Z" fill="#925F4A"/>
<path id="Vector_29" d="M102.843 88.1379C102.216 88.1379 101.59 87.8988 101.112 87.4207L96.2156 82.5242C95.2593 81.5679 95.2593 80.0184 96.2156 79.0621C97.1718 78.1058 98.7214 78.1058 99.6776 79.0621L104.574 83.9586C105.53 84.9149 105.53 86.4644 104.574 87.4207C104.096 87.8988 103.469 88.1379 102.843 88.1379Z" fill="#925F4A"/>
</g>
<path id="Vector_30" d="M107.739 112.621C107.113 112.621 106.486 112.382 106.009 111.903C105.052 110.947 105.052 109.398 106.009 108.441L108.457 105.993C109.413 105.037 110.963 105.037 111.919 105.993C112.875 106.949 112.875 108.499 111.919 109.455L109.471 111.903C108.992 112.382 108.366 112.621 107.739 112.621Z" fill="#C98850"/>
</g>
<g id="crumbs">
<g id="Group_6">
<path id="Vector_31" d="M112.636 9.79301V15.97C112.636 17.7023 114.385 18.8866 115.994 18.2431L123.338 15.3052C124.268 14.9333 124.877 14.033 124.877 13.0321V9.79301C124.877 8.44096 123.781 7.34462 122.429 7.34462H115.084C113.732 7.34462 112.636 8.44096 112.636 9.79301Z" fill="#FFE6A1"/>
<path id="Vector_32" d="M117.87 29.0945L116.308 40.0312C115.941 42.6039 117.647 45.0157 120.195 45.5251L124.679 46.4218C126.625 46.8112 128.613 45.9875 129.713 44.3364L131.4 41.8071C132.273 40.4966 132.463 38.8462 131.91 37.3718L126.802 23.7512C126.167 22.0572 123.994 21.5865 122.715 22.8659L119.256 26.3246C118.506 27.0737 118.02 28.0458 117.87 29.0945Z" fill="#FFE6A1"/>
</g>
<g id="Group_7">
<path id="Vector_33" d="M130.144 42.0728L125.661 41.1761C123.112 40.6664 121.406 38.2546 121.774 35.6822L123.336 24.7457C123.475 23.7703 123.93 22.8795 124.592 22.1545C123.927 22.1209 123.245 22.3348 122.715 22.8651L119.255 26.3241C118.506 27.0732 118.02 28.0453 117.871 29.0939L116.308 40.0304C115.941 42.6033 117.647 45.0148 120.195 45.5243L124.679 46.421C126.625 46.8098 128.613 45.9866 129.714 44.3356L131.189 42.123C130.842 42.1299 130.494 42.1429 130.144 42.0728Z" fill="#FFD796"/>
<path id="Vector_34" d="M120.89 13.3463C119.282 13.9895 117.532 12.8052 117.532 11.0732V7.34462H115.084C113.732 7.34462 112.636 8.44096 112.636 9.79301V15.97C112.636 17.7023 114.385 18.8866 115.993 18.2431L123.338 15.3052C124.267 14.9333 124.877 14.0333 124.877 13.0321V11.7516L120.89 13.3463Z" fill="#FFD796"/>
<path id="Vector_35" d="M130.994 53.3951L129.547 56.2894C129.203 56.9786 129.203 57.7898 129.547 58.479L130.208 59.8003C130.866 61.1174 132.53 61.5595 133.755 60.7427L137.702 58.1116C138.383 57.6573 138.793 56.8929 138.793 56.0745V53.4367C138.793 51.7657 137.155 50.5856 135.57 51.1142L132.41 52.1675C131.794 52.3725 131.285 52.814 130.994 53.3951Z" fill="#FFD796"/>
</g>
</g>
</g>
<defs>
<clipPath id="clip0_1_3">
<rect width="142" height="142" fill="white"/>
</clipPath>
</defs>
</svg>
